<?xml version="1.0" standalone="no"?>
<!DOCTYPE svg PUBLIC "-//W3C//DTD SVG 20010904//EN"
 "http://www.w3.org/TR/2001/REC-SVG-20010904/DTD/svg10.dtd">
<svg version="1.0" xmlns="http://www.w3.org/2000/svg" width="512.000000pt" height="512.000000pt" viewBox="0 0 512.000000 512.000000" preserveAspectRatio="xMidYMid meet">
  <g transform="translate(0.000000,512.000000) scale(0.100000,-0.100000)" fill="currentColor" stroke="none">
    <path d="M1568 4377 l-988 -362 0 -1326 0 -1325 991 -396 991 -397 989 396
989 395 0 1326 0 1327 -558 204 c-306 112 -746 274 -977 359 -231 85 -427 156
-435 158 -8 2 -459 -159 -1002 -359z m1927 -116 l920 -337 3 -1236 2 -1236
-929 -371 -928 -372 -932 372 -931 373 2 1235 3 1234 650 239 c358 131 772
283 920 338 149 54 277 99 285 99 8 0 429 -152 935 -338z"/>
    <path d="M2516 4524 c-22 -21 -20 -67 2 -87 40 -36 102 -9 102 45 0 49 -69 78
-104 42z"/>
    <path d="M2522 4274 c-34 -23 -27 -83 11 -104 24 -13 30 -13 55 0 37 21 44 81
10 104 -12 9 -29 16 -38 16 -9 0 -26 -7 -38 -16z"/>
    <path d="M2517 4012 c-38 -42 -11 -105 43 -105 38 0 60 23 60 63 0 53 -69 80
-103 42z"/>
    <path d="M2540 3773 c-41 -14 -54 -78 -22 -106 40 -36 102 -9 102 44 0 44 -41
75 -80 62z"/>
    <path d="M2015 3625 c-44 -18 -267 -105 -495 -195 -228 -89 -418 -165 -423
-169 -4 -4 -6 -201 -5 -438 l3 -431 505 208 505 208 3 426 c1 234 -1 426 -5
425 -5 0 -44 -16 -88 -34z m-35 -443 l0 -288 -247 -101 c-137 -56 -308 -126
-380 -156 l-133 -55 0 297 0 297 373 146 c204 81 375 147 380 147 4 1 7 -129
7 -287z"/>
    <path d="M3140 2708 l0 -833 380 -152 380 -151 0 846 0 847 -373 138 c-204 75
-375 137 -379 137 -5 0 -8 -375 -8 -832z m385 559 l250 -94 3 -706 c1 -389 1
-707 -1 -707 -7 0 -477 189 -497 200 -20 11 -20 20 -20 705 0 382 3 695 8 695
4 0 120 -42 257 -93z"/>
    <path d="M2522 3504 c-34 -23 -27 -83 11 -104 24 -13 30 -13 55 0 37 21 44 81
10 104 -12 9 -29 16 -38 16 -9 0 -26 -7 -38 -16z"/>
    <path d="M2516 3244 c-22 -21 -20 -67 2 -87 40 -36 102 -9 102 45 0 49 -69 78
-104 42z"/>
    <path d="M2522 2994 c-34 -23 -27 -83 11 -104 24 -13 30 -13 55 0 37 21 44 81
10 104 -12 9 -29 16 -38 16 -9 0 -26 -7 -38 -16z"/>
    <path d="M2517 2732 c-38 -42 -11 -105 43 -105 38 0 60 23 60 63 0 53 -69 80
-103 42z"/>
    <path d="M2540 2493 c-41 -14 -54 -78 -22 -106 40 -36 102 -9 102 44 0 44 -41
75 -80 62z"/>
    <path d="M2516 2215 c-31 -34 -25 -79 14 -95 35 -15 66 -6 86 24 19 31 4 73
-31 86 -37 14 -43 13 -69 -15z"/>
    <path d="M2271 2116 c-32 -34 -22 -80 20 -95 35 -12 48 -8 70 22 22 30 14 72
-17 86 -36 16 -48 14 -73 -13z"/>
    <path d="M2778 2129 c-32 -18 -40 -46 -23 -79 32 -62 127 -24 109 44 -10 40
-50 57 -86 35z"/>
    <path d="M2027 2022 c-37 -40 -7 -102 49 -102 50 0 73 75 32 104 -30 21 -61
20 -81 -2z"/>
    <path d="M3001 2014 c-17 -22 -18 -29 -8 -52 15 -35 25 -42 62 -42 41 0 68 42
52 80 -15 32 -26 40 -59 40 -17 0 -34 -9 -47 -26z"/>
    <path d="M1786 1924 c-38 -42 -24 -85 32 -100 37 -10 76 34 67 74 -3 16 -14
32 -23 35 -9 3 -24 8 -33 12 -11 4 -25 -3 -43 -21z"/>
    <path d="M1542 1827 c-34 -36 -29 -73 15 -96 31 -16 41 -14 67 14 37 40 21 86
-34 100 -19 4 -31 0 -48 -18z"/>
    <path d="M1297 1732 c-10 -10 -17 -33 -17 -50 0 -25 6 -35 31 -48 30 -15 33
-15 58 4 33 25 39 64 12 91 -26 26 -63 27 -84 3z"/>
    <path d="M1051 1626 c-37 -39 -10 -96 47 -96 31 0 64 43 56 74 -12 49 -67 61
-103 22z"/>
    <path d="M3976 1626 c-31 -48 -1 -100 54 -94 45 4 68 44 49 84 -11 23 -22 30
-50 32 -29 2 -39 -2 -53 -22z"/>
    <path d="M816 1539 c-31 -25 -34 -61 -6 -89 41 -41 100 -13 100 48 0 25 -6 35
-30 47 -36 19 -32 19 -64 -6z"/>
    <path d="M4216 1522 c-13 -26 -13 -32 5 -61 18 -30 24 -33 52 -27 41 8 60 33
52 71 -6 35 -20 45 -62 45 -26 0 -36 -6 -47 -28z"/>
  </g>
</svg>
